<?xml version="1.0" standalone="no"?>
<!DOCTYPE svg PUBLIC "-//W3C//DTD SVG 20010904//EN"
 "http://www.w3.org/TR/2001/REC-SVG-20010904/DTD/svg10.dtd">
<svg version="1.0" xmlns="http://www.w3.org/2000/svg"
 width="692.000000pt" height="768.000000pt" viewBox="0 0 692.000000 768.000000"
 preserveAspectRatio="xMidYMid meet">

<g transform="translate(0.000000,768.000000) scale(0.100000,-0.100000)"
fill="#000000" stroke="none">
<path d="M5238 6794 c-3 -3 -36 -9 -72 -15 -36 -5 -74 -13 -84 -18 -9 -5 -35
-17 -57 -27 -118 -55 -205 -147 -266 -281 -12 -26 -32 -71 -45 -100 -13 -28
-24 -54 -24 -57 0 -5 -22 -55 -66 -153 -8 -17 -14 -34 -14 -37 0 -3 -9 -25
-19 -49 -11 -23 -33 -73 -50 -110 -17 -38 -31 -73 -31 -78 0 -5 -4 -17 -10
-27 -14 -25 -60 -132 -60 -139 0 -3 -11 -29 -25 -57 -13 -28 -33 -73 -43 -101
-11 -27 -32 -77 -46 -110 -15 -33 -31 -69 -35 -80 -5 -11 -13 -31 -19 -45 -14
-32 -59 -140 -81 -192 -6 -13 -24 -54 -40 -91 -17 -38 -31 -74 -31 -81 0 -6
-4 -16 -9 -22 -4 -5 -30 -61 -56 -124 -26 -63 -58 -138 -71 -167 -13 -28 -24
-54 -24 -57 0 -5 -22 -55 -66 -153 -8 -17 -14 -34 -14 -37 0 -3 -11 -30 -25
-60 -14 -30 -25 -57 -25 -60 0 -5 -24 -60 -71 -163 -10 -24 -19 -45 -19 -48 0
-7 -37 -93 -50 -117 -6 -10 -10 -25 -10 -33 0 -8 -4 -15 -10 -15 -5 0 -10 -7
-10 -16 0 -9 -13 -45 -30 -81 -16 -35 -30 -71 -30 -79 0 -8 -4 -14 -10 -14 -5
0 -10 -8 -10 -17 0 -10 -14 -45 -30 -78 -16 -33 -30 -66 -30 -73 0 -7 -4 -20
-9 -30 -17 -29 -71 -150 -71 -156 0 -5 -21 -54 -66 -153 -8 -17 -14 -34 -14
-37 0 -3 -11 -29 -24 -58 -13 -29 -29 -68 -37 -85 -8 -18 -16 -33 -19 -33 -5
0 -18 27 -45 95 -9 22 -20 49 -25 60 -10 22 -35 82 -57 135 -8 19 -18 44 -23
55 -4 11 -15 38 -24 60 -10 22 -21 48 -26 57 -6 10 -10 22 -10 27 0 5 -13 39
-30 74 -16 36 -30 68 -30 71 0 3 -11 30 -25 60 -14 30 -25 60 -25 65 0 6 -4
19 -10 29 -18 33 -70 154 -70 163 0 5 -4 17 -10 27 -5 9 -16 35 -26 57 -24 59
-31 76 -50 120 -9 22 -23 56 -31 75 -8 19 -18 44 -23 55 -4 11 -34 83 -65 160
-31 77 -68 164 -81 193 -13 29 -24 57 -24 62 0 6 -4 18 -10 28 -5 9 -16 35
-26 57 -26 64 -31 77 -60 140 -14 33 -30 69 -34 80 -23 54 -129 167 -198 210
-40 25 -78 45 -85 45 -7 0 -17 4 -23 9 -21 20 -116 35 -247 38 -76 2 -144 0
-150 -5 -7 -5 -29 -12 -50 -16 -51 -9 -237 -115 -237 -135 0 -4 -25 -38 -55
-76 -30 -38 -57 -82 -61 -99 -3 -17 -9 -35 -13 -41 -27 -44 -42 -265 -22 -331
5 -16 16 -56 26 -89 9 -33 20 -68 26 -77 5 -10 9 -22 9 -27 0 -9 31 -81 80
-186 18 -39 73 -161 90 -200 9 -20 38 -85 79 -180 31 -70 45 -101 79 -175 16
-36 39 -87 51 -115 12 -27 31 -68 41 -90 32 -69 80 -176 80 -180 0 -2 16 -37
35 -78 19 -42 37 -87 41 -101 3 -14 9 -26 13 -26 4 0 13 -17 20 -38 7 -20 31
-74 52 -119 21 -46 39 -86 39 -90 0 -3 14 -36 31 -72 17 -36 35 -75 39 -86 8
-18 44 -98 83 -187 10 -20 17 -41 17 -47 0 -6 5 -11 10 -11 6 0 10 -7 10 -15
0 -8 4 -23 9 -33 20 -36 111 -231 111 -237 0 -4 12 -32 26 -63 14 -31 33 -73
41 -92 9 -19 29 -64 45 -100 16 -36 33 -74 38 -85 5 -11 22 -49 38 -85 52
-117 97 -218 122 -275 5 -11 27 -60 50 -108 117 -247 391 -389 655 -340 103
20 165 45 265 108 34 22 120 108 120 120 0 4 11 21 24 38 20 28 51 89 99 197
39 88 69 157 78 178 5 12 13 32 18 45 10 22 50 114 76 172 55 123 65 146 65
151 0 3 12 31 26 62 14 31 32 71 39 87 7 17 27 61 44 98 17 38 31 70 31 73 0
2 9 23 19 47 70 154 81 179 81 182 0 3 11 28 81 182 10 24 19 46 19 49 0 4 11
30 24 58 37 78 76 166 76 172 0 3 7 22 17 42 29 66 74 167 83 187 5 11 20 46
34 78 14 32 26 60 26 63 0 5 7 21 70 159 28 61 63 141 81 183 5 12 13 32 18
45 40 93 55 127 71 162 17 36 48 107 69 160 17 42 30 72 54 125 75 164 87 193
87 206 0 8 5 14 10 14 6 0 10 6 10 14 0 8 14 45 31 83 16 37 34 77 39 88 5 11
23 52 40 90 17 39 35 79 39 90 5 11 13 31 19 45 6 14 20 48 32 75 12 28 30 68
40 90 40 85 70 155 76 180 3 14 10 25 15 25 5 0 9 6 9 14 0 13 25 72 78 186 9
19 17 37 17 40 3 9 26 64 46 110 12 25 25 54 29 65 5 11 20 45 33 75 62 140
73 166 101 235 10 22 21 48 26 57 6 10 10 26 10 36 0 10 3 22 7 26 14 13 18
53 17 176 0 164 -26 253 -101 342 -17 21 -33 41 -35 46 -1 4 -25 26 -53 48
-84 69 -149 97 -308 133 -50 12 -160 15 -169 5z"/>
<path d="M1145 6773 c-22 -2 -44 -9 -49 -14 -6 -5 -16 -9 -24 -9 -17 0 -139
-59 -166 -80 -122 -96 -198 -205 -235 -340 -7 -25 -17 -61 -23 -81 -14 -49 1
-215 22 -244 4 -5 10 -23 14 -40 25 -113 169 -287 282 -340 93 -43 117 -53
149 -60 49 -10 228 -15 255 -6 14 4 43 14 65 21 108 33 224 112 288 196 46 60
85 129 94 163 3 14 8 31 12 36 27 46 40 256 19 325 -19 63 -24 74 -64 155 -62
126 -166 221 -304 278 -19 8 -48 20 -64 26 -32 13 -204 22 -271 14z"/>
</g>
</svg>
